# xmcd
#
# Track frame offsets:
#	182
#	14047
#	27130
#	37667
#	48942
#	64717
#	76467
#	88405
#	98935
#	111945
#	130815
#	144235
#	156687
#	168815
#	191192
#
# Disc length: 2725
#
# Revision: 4
# Processed by: cddbd v1.5.1PL0 Copyright (c) Steve Scherf et al.
# Submitted via: Grip 2.94
# Normalized: r3:DSETVAR1
#
DISCID=c90aa30f
DTITLE=Various Artist - Blues Evergreens CD 1 of 4
DYEAR=2001
DGENRE=Blues
TTITLE0=Little Walter - Blues With A Feeling
TTITLE1=Muddy Waters - Manish Boy
TTITLE2=Howlin' Wolf - Who's Been Talking
TTITLE3=John Lee Hooker - Boom Boom
TTITLE4=Lightnin' Hopkins - Coffee For Mama
TTITLE5=Muddy Waters - Goin' Home
TTITLE6=B.B. King - Dark Is The Night m- Part 1
TTITLE7=Elmore James - I Done Somebody Wrong
TTITLE8=Little Walter - Roller Coaster
TTITLE9=Muddy Waters - I Got My Mojo Working
TTITLE10=Lightnin' Hopkins - Mojo Hand
TTITLE11=John Lee Hooker - Hobo Blues
TTITLE12=B.B.King - Dark Is The Night - Part 2
TTITLE13=Howlin' Wolf - Wang Dang Doodle
TTITLE14=Muddy Waters - She Moves Me
EXTD=
EXTT0=
EXTT1=
EXTT2=
EXTT3=
EXTT4=
EXTT5=
EXTT6=
EXTT7=
EXTT8=
EXTT9=
EXTT10=
EXTT11=
EXTT12=
EXTT13=
EXTT14=
PLAYORDER=
